<?xml version="1.0" encoding="UTF-8" standalone="no"?>
<svg width="543px" height="276px" viewBox="0 0 543 276" version="1.1" xmlns="http://www.w3.org/2000/svg"
     xmlns:xlink="http://www.w3.org/1999/xlink" xmlns:sketch="http://www.bohemiancoding.com/sketch/ns">
    <!-- Generator: Sketch 3.4 (15575) - http://www.bohemiancoding.com/sketch -->
    <title>Untitled</title>
    <desc>Created with Sketch.</desc>
    <defs></defs>
    <g id="Page-1" stroke="none" stroke-width="1" fill="none" fill-rule="evenodd" sketch:type="MSPage">
        <g id="NoData_Icon" sketch:type="MSLayerGroup">
            <path d="M378,110.6 L543,275.6 L212.7,275.6 L378,110.6 L378,110.6 Z" id="Shape" fill="#E1E9F2"
                  sketch:type="MSShapeGroup"/>
            <path d="M120.1,0.6 L422.9,0.6 C425.7,0.6 427.9,2.8 427.9,5.6 L427.9,210.6 C427.9,213.4 425.7,215.6 422.9,215.6 L120.1,215.6 C117.3,215.6 115.1,213.4 115.1,210.6 L115.1,5.6 C115.1,2.8 117.3,0.6 120.1,0.6 L120.1,0.6 L120.1,0.6 Z"
                  id="Shape" fill="#C5D4E5" sketch:type="MSShapeGroup"/>
            <path d="M130.1,15.6 L412.9,15.6 L412.9,175.6 L130.1,175.6 L130.1,15.6 L130.1,15.6 Z" id="Shape"
                  fill="#8195A9" sketch:type="MSShapeGroup"/>
            <path d="M272.8,188.1 C276.9,188.1 280.3,191.5 280.3,195.6 C280.3,199.7 276.9,203.1 272.8,203.1 C268.7,203.1 265.3,199.7 265.3,195.6 C265.2,191.5 268.6,188.1 272.8,188.1 L272.8,188.1 L272.8,188.1 Z"
                  id="Shape" fill="#8195A9" sketch:type="MSShapeGroup"/>
            <path d="M140.1,260.6 L340.3,260.6 C343.1,260.6 345.3,262.8 345.3,265.6 L345.3,270.6 C345.3,273.4 343.1,275.6 340.3,275.6 L140.1,275.6 C137.3,275.6 135.1,273.4 135.1,270.6 L135.1,265.6 C135.1,262.8 137.4,260.6 140.1,260.6 L140.1,260.6 L140.1,260.6 Z"
                  id="Shape" fill="#C5D4E5" sketch:type="MSShapeGroup"/>
            <path d="M255.2,210.6 L300.3,210.6 L300.3,260.6 L255.2,260.6 L255.2,210.6 L255.2,210.6 Z" id="Shape"
                  fill="#C5D4E5" sketch:type="MSShapeGroup"/>
            <path d="M300.3,260.6 L255.2,215.6 L300.3,215.6 L300.3,260.6 L300.3,260.6 Z" id="Shape" fill="#8195A9"
                  sketch:type="MSShapeGroup"/>
            <path d="M87.6,150.6 L130.1,193.1 L212.7,275.6 L130.1,275.6 L87.6,275.6 L87.6,150.6 L87.6,150.6 Z"
                  id="Shape" fill="#C5D4E5" sketch:type="MSShapeGroup"/>
            <path d="M105.1,170.6 L95.1,170.6 L95.1,153.1 C95.1,151.7 94,150.6 92.6,150.6 L2.5,150.6 C1.1,150.6 0,151.7 0,153.1 L0,273.1 C0,274.5 1.1,275.6 2.5,275.6 L92.6,275.6 C94,275.6 95.1,274.5 95.1,273.1 L95.1,245.6 L105.1,245.6 C118.9,245.6 130.1,234.4 130.1,220.6 L130.1,195.6 C130.1,181.8 118.9,170.6 105.1,170.6 L105.1,170.6 Z M115.1,220.6 C115.1,226.1 110.6,230.6 105.1,230.6 L95.1,230.6 L95.1,185.6 L105.1,185.6 C110.6,185.6 115.1,190.1 115.1,195.6 L115.1,220.6 L115.1,220.6 Z"
                  id="Shape" fill="#8195A9" sketch:type="MSShapeGroup"/>
            <path d="M22.5,218.1 C18.4,218.1 15,214.7 15,210.6 L15,150.6 L30,150.6 L30,210.6 C30,214.8 26.7,218.1 22.5,218.1 L22.5,218.1 L22.5,218.1 Z M22.5,240.6 C18.4,240.6 15,237.2 15,233.1 C15,229 18.4,225.6 22.5,225.6 C26.6,225.6 30,229 30,233.1 C30,237.3 26.7,240.6 22.5,240.6 L22.5,240.6 L22.5,240.6 Z"
                  id="Shape" fill="#C5D4E5" sketch:type="MSShapeGroup"/>
            <path d="M37.5,95.6 C41.6,95.6 45,99 45,103.1 L45,128.1 C45,132.2 41.6,135.6 37.5,135.6 C33.4,135.6 30,132.2 30,128.1 L30,103.1 C30,99 33.4,95.6 37.5,95.6 L37.5,95.6 L37.5,95.6 Z"
                  id="Shape" fill="#E1E9F2" sketch:type="MSShapeGroup"/>
            <path d="M60.1,75.6 C64.2,75.6 67.6,79 67.6,83.1 L67.6,108.1 C67.6,112.2 64.2,115.6 60.1,115.6 C56,115.6 52.6,112.2 52.6,108.1 L52.6,83.1 C52.5,79 55.9,75.6 60.1,75.6 L60.1,75.6 L60.1,75.6 Z"
                  id="Shape" fill="#E1E9F2" sketch:type="MSShapeGroup"/>
            <path d="M132.6,100.6 L232.7,100.6 L255.2,120.6 L255.2,273.1 C255.2,274.5 254.1,275.6 252.7,275.6 L132.6,275.6 C131.2,275.6 130.1,274.5 130.1,273.1 L130.1,103.1 C130.1,101.7 131.2,100.6 132.6,100.6 L132.6,100.6 L132.6,100.6 Z"
                  id="Shape" fill="#EBF1F8" sketch:type="MSShapeGroup"/>
            <path d="M130.1,193.1 L212.7,275.6 L130.1,275.6 L130.1,193.1 L130.1,193.1 Z" id="Shape" fill="#E1E9F2"
                  sketch:type="MSShapeGroup"/>
            <path d="M150.1,165.6 L150.1,158.1 L235.2,158.1 L235.2,165.6 L150.1,165.6 L150.1,165.6 L150.1,165.6 Z M150.1,180.6 L150.1,173.1 L235.2,173.1 L235.2,180.6 L150.1,180.6 L150.1,180.6 L150.1,180.6 Z M150.1,195.6 L150.1,188.1 L235.2,188.1 L235.2,195.6 L150.1,195.6 L150.1,195.6 L150.1,195.6 Z M150.1,210.6 L150.1,203.1 L235.2,203.1 L235.2,210.6 L150.1,210.6 L150.1,210.6 L150.1,210.6 Z M150.1,128.1 L150.1,120.6 L180.1,120.6 L180.1,128.1 L150.1,128.1 L150.1,128.1 L150.1,128.1 Z"
                  id="Shape" fill="#8195A9" sketch:type="MSShapeGroup"/>
            <path d="M232.7,120.6 L255.2,120.6 L255.2,143.1 L232.7,120.6 L232.7,120.6 Z" id="Shape" fill="#C5D4E5"
                  sketch:type="MSShapeGroup"/>
        </g>
    </g>
</svg>
