<?xml version="1.0" standalone="no"?>
<!DOCTYPE svg PUBLIC "-//W3C//DTD SVG 1.1//EN" "http://www.w3.org/Graphics/SVG/1.1/DTD/svg11.dtd" >
<svg xmlns="http://www.w3.org/2000/svg">
<metadata>Generated by IcoMoon</metadata>
<defs>
<font id="icomoon" horiz-adv-x="1024">
<font-face units-per-em="1024" ascent="960" descent="-64" />
<missing-glyph horiz-adv-x="1024" />
<glyph unicode="&#x20;" horiz-adv-x="512" d="" />
<glyph unicode="&#xe600;" glyph-name="bell" d="M731.429 155.429c0-121.125-98.231-219.429-219.355-219.429s-219.502 98.304-219.502 219.429h-292.571v73.143c80.823 0 146.359 65.463 146.359 146.286v219.429c0 202.021 163.694 365.714 365.714 365.714 201.947 0 365.714-163.694 365.714-365.714v-219.429c0-80.823 65.463-146.286 146.213-146.286v-73.143h-292.571zM512.073 9.143c80.75 0 146.213 65.463 146.213 146.286h-292.498c0-80.823 65.463-146.286 146.286-146.286v0zM804.645 374.857v219.429c0 161.573-130.999 292.571-292.571 292.571s-292.571-130.999-292.571-292.571v-219.429c0-56.393-21.797-107.447-56.832-146.286h698.807c-35.035 38.912-56.832 89.893-56.832 146.286v0z" />
<glyph unicode="&#xe601;" glyph-name="currency" d="M597.333 476.444h-56.889v341.333h56.889c94.322 0 170.78-76.459 170.78-170.667h56.775c0 125.668-101.888 227.556-227.556 227.556h-56.889v56.889h-56.889v-56.889h-56.889c-125.668 0-227.556-101.888-227.556-227.556s101.888-227.556 227.556-227.556h56.889v-341.333h-56.889c-94.265 0-170.667 76.459-170.667 170.667h-56.889c0-125.668 101.888-227.556 227.556-227.556h56.889v-56.889h56.889v56.889h56.889c125.668 0 227.556 101.888 227.556 227.556s-101.888 227.556-227.556 227.556zM426.667 476.444c-94.265 0-170.667 76.459-170.667 170.667s76.402 170.667 170.667 170.667h56.889v-341.333h-56.889zM597.333 78.222h-56.889v341.333h56.889c94.322 0 170.78-76.459 170.78-170.667s-76.459-170.667-170.78-170.667z" />
<glyph unicode="&#xe602;" glyph-name="customer" d="M512 960c-282.795 0-512-229.205-512-512s229.205-512 512-512 512 229.205 512 512-229.205 512-512 512zM232.619 89.259c17.863 75.15 85.049 131.186 165.604 131.186h227.556c80.612 0 147.74-56.036 165.66-131.186-77.141-60.132-173.966-96.37-279.438-96.37s-202.24 36.238-279.381 96.37zM838.201 131.072c-32.711 85.504-115.428 146.261-212.423 146.261h-227.556c-97.109 0-179.314-61.156-212.025-146.773-79.929 81.977-129.308 193.877-129.308 317.44 0 251.335 203.776 455.111 455.111 455.111s455.111-203.776 455.111-455.111c0-123.278-49.209-234.951-128.91-316.928zM739.499 504.889c0 125.668-101.831 227.556-227.499 227.556s-227.612-101.888-227.612-227.556 101.945-227.556 227.612-227.556 227.499 101.888 227.499 227.556zM512 334.222c-94.265 0-170.667 76.345-170.667 170.667 0 94.265 76.402 170.724 170.667 170.724s170.61-76.459 170.61-170.724c0-94.322-76.345-170.667-170.61-170.667z" />
<glyph unicode="&#xe603;" glyph-name="resources" d="M967.111 789.333h-455.168v113.778c0 31.46-25.372 56.889-56.832 56.889h-398.222c-31.46 0-56.889-25.429-56.889-56.832v-910.279c0-31.346 25.429-56.889 56.889-56.889h910.222c31.403 0 56.889 25.543 56.889 56.889v739.556c0 31.516-25.486 56.889-56.889 56.889zM967.111-7.111h-910.222v910.279h398.222v-170.724h512v-739.556zM227.556 391.111h568.889v-56.889h-568.889v56.889z" />
<glyph unicode="&#xe604;" glyph-name="services" d="M967.111-64h-341.333c-31.46 0-56.946 25.429-56.946 56.889v341.333c0 31.46 25.486 56.889 56.946 56.889h341.333c31.46 0 56.889-25.429 56.889-56.889v-341.333c0-31.46-25.429-56.889-56.889-56.889v0zM967.111 334.222h-341.333v-341.333h341.333v341.333zM967.111 504.889h-341.333c-31.46 0-56.946 25.486-56.946 56.889v341.39c0 31.403 25.486 56.832 56.946 56.832h341.333c31.46 0 56.889-25.429 56.889-56.832v-341.39c0-31.403-25.429-56.889-56.889-56.889v0zM967.111 903.168h-341.333v-341.39h341.333v341.39zM398.222-64h-341.39c-31.403 0-56.832 25.429-56.832 56.889v341.333c0 31.46 25.429 56.889 56.832 56.889h341.39c31.46 0 56.889-25.429 56.889-56.889v-341.333c0-31.46-25.429-56.889-56.889-56.889v0zM398.222 334.222h-341.39v-341.333h341.39v341.333zM398.222 504.889h-341.39c-31.403 0-56.832 25.486-56.832 56.889v341.39c0 31.403 25.429 56.832 56.832 56.832h341.39c31.46 0 56.889-25.429 56.889-56.832v-341.39c0-31.403-25.429-56.889-56.889-56.889v0zM398.222 903.168h-341.39v-341.39h341.39v341.39z" />
<glyph unicode="&#xe605;" glyph-name="statistics" d="M56.889-64c-31.46 0-56.889 25.429-56.889 56.889v967.111h56.889v-967.111h967.111v-56.889h-967.111zM739.556 789.333h56.889v-625.778h-56.889v625.778zM512 618.667h56.889v-455.111h-56.889v455.111zM284.444 448h56.889v-284.444h-56.889v284.444z" />
<glyph unicode="&#xe606;" glyph-name="tariff" d="M967.111-64h-910.222c-31.46 0-56.889 25.429-56.889 56.889v682.667c0 31.46 25.429 56.889 56.889 56.889h227.556c0 125.668 101.831 227.556 227.556 227.556s227.556-101.888 227.556-227.556h227.556c31.46 0 56.889-25.429 56.889-56.889v-682.667c0-31.46-25.429-56.889-56.889-56.889v0zM512 903.111c-94.265 0-170.667-76.459-170.667-170.667h341.276c0 94.208-76.345 170.667-170.61 170.667v0zM967.111 675.556h-227.556v-113.778h-56.946v113.778h-341.276v-113.778h-56.889v113.778h-227.556v-682.667h910.222v682.667z" />
<glyph unicode="&#xe607;" glyph-name="unit" d="M512-64c-282.795 0-512 229.205-512 512s229.205 512 512 512 512-229.205 512-512-229.205-512-512-512v0zM512 903.111c-251.335 0-455.168-203.776-455.168-455.111s203.833-455.111 455.168-455.111 455.111 203.776 455.111 455.111-203.776 455.111-455.111 455.111v0zM625.778 448c0-62.862-50.972-113.778-113.778-113.778-62.862 0-113.778 50.916-113.778 113.778s50.916 113.778 113.778 113.778c16.725 0 32.37-3.755 46.649-10.24l180.907 180.907 56.832-56.889-180.907-180.907c6.485-14.279 10.297-29.924 10.297-46.649v0zM455.111 448c0-31.46 25.429-56.889 56.889-56.889s56.832 25.429 56.832 56.889-25.372 56.889-56.832 56.889-56.889-25.429-56.889-56.889v0z" />
<glyph unicode="&#xe608;" glyph-name="user" d="M455.111 49.778v-56.889c0-31.46-25.429-56.889-56.889-56.889h-170.667c-31.46 0-56.889 25.429-56.889 56.889v56.889h-170.667v56.889h170.667v56.889c0 31.46 25.429 56.889 56.889 56.889h170.667c31.46 0 56.889-25.429 56.889-56.889v-56.889h568.889v-56.889h-568.889zM398.222 163.556h-170.667v-170.667h170.667v170.667zM853.333 334.222c0-31.46-25.486-56.889-56.946-56.889h-170.61c-31.46 0-56.946 25.429-56.946 56.889v56.889h-568.832v56.889h568.832v56.889c0 31.46 25.486 56.889 56.946 56.889h170.61c31.46 0 56.946-25.429 56.946-56.889v-56.889h170.667v-56.889h-170.667v-56.889zM796.388 504.889h-170.61v-170.667h170.61v170.667zM455.111 675.612c0-31.46-25.429-56.946-56.889-56.946h-170.667c-31.46 0-56.889 25.486-56.889 56.946v56.832h-170.667v56.946h170.667v56.832c0 31.46 25.429 56.889 56.889 56.889h170.667c31.46 0 56.889-25.429 56.889-56.889v-56.832h568.889v-56.946h-568.889v-56.832zM398.222 846.222h-170.667v-170.61h170.667v170.61z" />
<glyph unicode="&#xe609;" glyph-name="check" horiz-adv-x="1479" d="M1251.556 960l-682.667-682.667-341.447 341.333c-113.664 0-227.442-113.778-227.442-113.778l568.889-568.889 910.222 910.336c0 0-113.778 113.664-227.556 113.664z" />
<glyph unicode="&#xe60a;" glyph-name="cross" horiz-adv-x="1138" d="M1137.778 846.222c0 0-113.664 113.778-227.669 113.778l-341.22-341.22-341.22 341.22c-114.005 0-227.669-113.778-227.669-113.778l398.222-398.222-398.222-398.222c0 0 113.664-113.778 227.669-113.778l341.22 341.333 341.22-341.333c114.005 0 227.669 113.778 227.669 113.778l-398.222 398.222 398.222 398.222z" />
<glyph unicode="&#xe60b;" glyph-name="reload" horiz-adv-x="878" d="M749.116 685.165l-34.428-34.428c70.659-70.659 114.303-168.090 114.303-275.81 0-215.44-174.673-390.114-390.114-390.114s-390.114 174.673-390.114 390.114 174.625 390.016 390.065 390.016l-97.528-97.528 48.813-48.715 170.626 170.675-170.675 170.626-48.764-48.715 97.48-97.528c-242.358 0-438.781-196.471-438.781-438.878s196.471-438.878 438.829-438.878c242.407 0 438.878 196.471 438.878 438.878 0 121.13-49.154 230.947-128.591 310.287z" />
<glyph unicode="&#xe60c;" glyph-name="ruble" horiz-adv-x="903" d="M602.293 357.647h-301.176v-120.471h120.471c33.25 0 60.235-26.985 60.235-60.235 0-33.19-26.985-60.235-60.235-60.235h-120.471v-120.471c0-33.19-26.985-60.235-60.235-60.235-33.37 0-60.175 27.046-60.175 60.235v120.471h-120.471c-33.37 0-60.235 27.046-60.235 60.235 0 33.25 26.865 60.235 60.235 60.235h120.471v120.471h-120.471c-33.37 0-60.235 26.985-60.235 60.175 0 33.431 26.865 60.235 60.235 60.235h120.471v481.943h421.587c166.37 0 301.116-134.867 301.116-301.176s-134.746-301.176-301.116-301.176v0zM602.293 839.529h-301.176v-361.472h301.176c99.75 0 180.646 80.956 180.646 180.826 0 99.75-80.896 180.646-180.646 180.646v0z" />
<glyph unicode="&#xe60d;" glyph-name="calendar" d="M796.343 846.229v113.771h-56.886v-113.771h-113.658v113.771h-56.886v-113.771h-113.771v113.771h-56.886v-113.771h-113.771v113.771h-56.886v-113.771h-227.657v-910.172h1024.057v910.172h-227.657zM967.114-7.114h-910.172v796.457h170.657v-113.771h56.886v113.771h113.771v-113.771h56.886v113.771h113.771v-113.771h56.886v113.771h113.658v-113.771h56.886v113.771h170.771v-796.457zM284.486 391.086h454.972v-56.886h-454.972v56.886zM284.486 220.429h454.972v-56.886h-454.972v56.886zM284.486 561.743h454.972v-56.886h-454.972v56.886z" />
<glyph unicode="&#xe60e;" glyph-name="cloud" d="M796.4 499.112v62.574c0 157.118-127.31 284.542-284.429 284.542s-284.429-127.424-284.429-284.486v-62.574c-129.813-26.395-227.543-141.133-227.543-278.74 0-157.118 127.424-284.429 284.486-284.429h455.086c157.118 0 284.372 127.31 284.372 284.429 0 137.607-97.673 252.345-227.543 278.683zM739.514-7.114h-455.086c-125.717 0-227.6 101.882-227.6 227.543s101.939 227.543 227.6 227.543v113.771c0.057 125.717 101.882 227.6 227.543 227.6 125.604 0 227.543-101.882 227.543-227.6v-56.886c-157.118 0-284.429-127.31-284.429-284.429h56.886c0 125.661 101.882 227.543 227.543 227.543 125.717 0 227.486-101.882 227.486-227.543s-101.769-227.543-227.486-227.543z" />
<glyph unicode="&#xe60f;" glyph-name="dashboard" d="M967.114 220.429h-341.371v-227.543h170.6v-56.886h-568.744v56.886h170.6v227.543h-341.257c-31.515 0-57 25.542-57 56.886v625.8c0 31.401 25.485 56.886 57 56.886h910.172c31.401 0 56.886-25.485 56.886-56.886v-625.8c0-31.344-25.485-56.886-56.886-56.886v0zM455.086-7.114h113.771v227.543h-113.771v-227.543zM967.114 903.114h-910.172v-625.8h910.172v625.8z" />
<glyph unicode="&#xe610;" glyph-name="news" d="M398.2 732.4h398.2v-56.886h-398.2v56.886zM796.4 334.2h-398.2v56.886h398.2v-56.886zM398.2 561.743h398.2v-56.886h-398.2v56.886zM796.4-64h-568.857c-125.661 0-227.543 101.882-227.543 227.543v568.857h56.886v-568.857c0-94.203 76.511-170.657 170.714-170.657h568.857c94.203 0 170.6 76.454 170.6 170.657v739.458h-739.514v-739.458h-56.886v796.457h853.286v-796.457c0-125.661-101.825-227.543-227.543-227.543v0z" />
<glyph unicode="&#xe611;" glyph-name="support" d="M512.028-63.943c-282.722 0-512.028 229.193-512.028 511.972s229.306 511.972 512.028 511.972 512.028-229.193 512.028-511.972-229.306-511.972-512.028-511.972v0zM625.8 8.928c159.451 41.356 285.282 165.651 326.41 325.329h-244.267c-19.853-34.245-48.239-62.688-82.143-82.655v-242.675zM512.028 618.686c-94.26 0-170.657-76.454-170.657-170.657s76.398-170.657 170.657-170.657c94.203 0 170.657 76.454 170.657 170.657s-76.454 170.657-170.657 170.657v0zM455.143-2.279c18.715-2.332 37.431-4.778 56.886-4.778s38.17 2.446 56.886 4.778v230.558c-18.203-4.778-37.089-7.793-56.886-7.793s-38.682 3.015-56.886 7.793v-230.558zM398.257 8.928v242.675c-33.961 19.967-62.347 48.41-82.143 82.655h-244.21c41.185-159.678 166.96-283.974 326.353-325.329v0zM57 448.028c0-19.341 1.536-38.227 3.925-56.886h231.639c-4.665 18.317-8.021 37.089-8.021 56.886s3.356 38.682 8.078 56.886h-231.696c-2.389-18.659-3.925-37.545-3.925-56.886v0zM398.257 887.072c-159.394-41.356-285.168-165.594-326.353-325.273h244.21c19.853 34.131 48.239 62.688 82.143 82.655v242.618zM455.143 898.279v-230.444c18.203 4.722 37.089 7.736 56.886 7.736s38.682-3.015 56.886-7.793v230.501c-18.715 2.389-37.431 4.835-56.886 4.835s-38.17-2.446-56.886-4.835v0zM625.8 887.072v-242.618c33.961-19.967 62.347-48.524 82.143-82.655h244.267c-41.128 159.678-166.96 283.917-326.41 325.273v0zM731.437 504.914c4.722-18.203 8.135-37.089 8.135-56.886s-3.413-38.569-8.135-56.886h231.752c2.332 18.659 3.925 37.545 3.925 56.886s-1.593 38.227-3.925 56.886h-231.752z" />
<glyph unicode="&#xe612;" glyph-name="arrow-left" horiz-adv-x="1707" d="M1160.725 38.569l-409.633 409.633 409.633 409.531-102.409 102.409-512.041-511.939 512.041-512.144z" />
<glyph unicode="&#xe613;" glyph-name="transactions-v2" d="M910.222-64h-796.444c-62.578 0-113.778 51.2-113.778 113.778v682.667c0 62.578 51.2 113.778 113.778 113.778h113.778v56.889c0 34.133 22.756 56.889 56.889 56.889s56.889-22.756 56.889-56.889v-56.889h341.333v56.889c0 34.133 22.756 56.889 56.889 56.889s56.889-22.756 56.889-56.889v-56.889h113.778c62.578 0 113.778-51.2 113.778-113.778v-682.667c0-62.578-51.2-113.778-113.778-113.778v0zM910.222 675.556c0 34.133-22.756 56.889-56.889 56.889h-682.667c-34.133 0-56.889-22.756-56.889-56.889v-568.889c0-34.133 22.756-56.889 56.889-56.889h682.667c34.133 0 56.889 22.756 56.889 56.889v568.889zM284.444 334.222h455.111v-113.778h-455.111v113.778zM284.444 561.778h455.111v-113.778h-455.111v113.778z" />
<glyph unicode="&#xe614;" glyph-name="support-v2" d="M796.444 163.556c0 0 0-142.222 0-170.667 0-39.822-28.444-56.889-56.889-56.889s-113.778 0-113.778 0l-227.556 227.556h-170.667c-125.156 0-227.556 102.4-227.556 227.556v341.333c0 125.156 102.4 227.556 227.556 227.556h568.889c125.156 0 227.556-102.4 227.556-227.556v-341.333c0-125.156-102.4-227.556-227.556-227.556v0zM910.222 732.444c0 62.578-51.2 113.778-113.778 113.778h-568.889c-62.578 0-113.778-51.2-113.778-113.778v-341.333c0-62.578 51.2-113.778 113.778-113.778h227.556l227.556-227.556v227.556h113.778c62.578 0 113.778 51.2 113.778 113.778v341.333z" />
<glyph unicode="&#xe615;" glyph-name="statistics-v2" d="M967.111-64h-910.222c-34.133 0-56.889 22.756-56.889 56.889s22.756 56.889 56.889 56.889h910.222c34.133 0 56.889-22.756 56.889-56.889 0-28.444-22.756-56.889-56.889-56.889v0zM170.667 163.556c-34.133 0-56.889 22.756-56.889 56.889v170.667c0 34.133 22.756 56.889 56.889 56.889s56.889-22.756 56.889-56.889v-170.667c0-28.444-22.756-56.889-56.889-56.889v0zM398.222 163.556c-34.133 0-56.889 22.756-56.889 56.889v341.333c0 34.133 22.756 56.889 56.889 56.889s56.889-22.756 56.889-56.889v-341.333c0-28.444-22.756-56.889-56.889-56.889v0zM625.778 163.556c-34.133 0-56.889 22.756-56.889 56.889v512c0 34.133 22.756 56.889 56.889 56.889s56.889-22.756 56.889-56.889v-512c0-28.444-22.756-56.889-56.889-56.889v0zM853.333 163.556c-34.133 0-56.889 22.756-56.889 56.889v682.667c0 34.133 22.756 56.889 56.889 56.889s56.889-22.756 56.889-56.889v-682.667c0-28.444-22.756-56.889-56.889-56.889v0z" />
<glyph unicode="&#xe616;" glyph-name="arrow-right" horiz-adv-x="1707" d="M546.261 857.447l409.639-409.639-409.639-409.526 102.411-102.411 512.040 511.937-512.040 512.146z" />
<glyph unicode="&#xe617;" glyph-name="news-v2" d="M796.425 391.149h-341.276v113.701h341.276v-113.701zM455.149 732.425h341.276v-113.701h-341.276v113.701zM796.425-64h-568.851c-125.226 0-227.575 102.348-227.575 227.575v568.851h113.873v-568.851c0-62.613 51.26-113.701 113.701-113.701h568.851c62.613 0 113.701 51.26 113.701 113.701v682.724h-568.851v-625.787c0-34.059-22.706-56.937-56.937-56.937s-56.937 22.706-56.937 56.937v739.489h796.425v-796.425c0.172-125.226-102.176-227.575-227.403-227.575v0z" />
<glyph unicode="&#xe618;" glyph-name="dashboard-v2" d="M967.063 220.511h-284.339v-170.638h113.701c34.059 0 56.937-22.706 56.937-56.937 0-34.059-22.706-56.937-56.937-56.937h-568.851c-34.059 0-56.937 22.706-56.937 56.937 0 34.059 22.706 56.937 56.937 56.937h113.701v170.638h-284.339c-34.231 0-56.937 22.706-56.937 56.765v625.787c0 34.231 22.706 56.937 56.937 56.937h910.127c34.059 0 56.937-22.706 56.937-56.937v-625.787c0-34.059-22.706-56.765-56.937-56.765v0zM568.851 49.873v170.638h-113.701v-170.638h113.701zM910.127 846.299h-796.425v-511.914h796.425v511.914z" />
<glyph unicode="&#xe619;" glyph-name="cloud-v2" d="M796.425 499.174v5.676c0 159.285-125.226 284.511-284.511 284.511s-284.339-125.226-284.339-284.511v-5.676c-130.903-28.382-227.575-142.256-227.575-278.663 0-159.285 125.226-284.511 284.511-284.511h455.149c159.285 0 284.511 125.226 284.511 284.511-0.172 136.407-96.844 250.281-227.747 278.663zM739.489 49.873h-454.977c-96.672 0-170.638 73.966-170.638 170.638s73.966 170.638 170.638 170.638h56.937v113.701c0 96.672 73.966 170.638 170.638 170.638s170.638-73.966 170.638-170.638v-5.676c-130.903-28.382-227.575-142.256-227.575-278.663h113.873c0 96.672 73.966 170.638 170.638 170.638v0c96.672 0 170.638-73.966 170.638-170.638s-74.138-170.638-170.81-170.638z" />
<glyph unicode="&#xe61a;" glyph-name="users-v2" d="M910.222 402.489v-409.6c0-34.133-22.756-56.889-56.889-56.889s-56.889 22.756-56.889 56.889v409.6c-68.267 22.756-113.778 85.333-113.778 159.289s45.511 136.533 113.778 159.289v182.044c0 34.133 22.756 56.889 56.889 56.889s56.889-22.756 56.889-56.889v-182.044c68.267-22.756 113.778-85.333 113.778-159.289s-45.511-136.533-113.778-159.289v0zM853.333 618.667c-34.133 0-56.889-22.756-56.889-56.889s22.756-56.889 56.889-56.889c34.133 0 56.889 22.756 56.889 56.889s-22.756 56.889-56.889 56.889v0zM512-64c-34.133 0-56.889 22.756-56.889 56.889v910.222c0 34.133 22.756 56.889 56.889 56.889s56.889-22.756 56.889-56.889v-910.222c0-34.133-22.756-56.889-56.889-56.889v0zM227.556 174.933v-182.044c0-34.133-22.756-56.889-56.889-56.889s-56.889 22.756-56.889 56.889v182.044c-68.267 22.756-113.778 85.333-113.778 159.289s45.511 136.533 113.778 159.289v409.6c0 34.133 22.756 56.889 56.889 56.889s56.889-22.756 56.889-56.889v-409.6c68.267-22.756 113.778-85.333 113.778-159.289s-45.511-136.533-113.778-159.289v0zM170.667 391.111c-34.133 0-56.889-22.756-56.889-56.889s22.756-56.889 56.889-56.889c34.133 0 56.889 22.756 56.889 56.889s-22.756 56.889-56.889 56.889v0z" />
<glyph unicode="&#xe61b;" glyph-name="units-v2" d="M512 960c-284.444 0-512-227.556-512-512s227.556-512 512-512c284.444 0 512 227.556 512 512s-227.556 512-512 512zM512 49.778c-221.867 0-398.222 176.356-398.222 398.222s176.356 398.222 398.222 398.222c79.644 0 153.6-22.756 216.178-68.267l-170.667-170.667c-11.378 5.689-28.444 11.378-45.511 11.378-96.711 0-170.667-73.956-170.667-170.667s73.956-170.667 170.667-170.667c96.711 0 170.667 73.956 170.667 170.667 0 17.067-5.689 34.133-5.689 51.2l170.667 170.667c39.822-68.267 62.578-142.222 62.578-221.867 0-221.867-176.356-398.222-398.222-398.222zM568.889 448c0-34.133-22.756-56.889-56.889-56.889s-56.889 22.756-56.889 56.889 22.756 56.889 56.889 56.889 56.889-22.756 56.889-56.889z" />
<glyph unicode="&#xe61c;" glyph-name="tariffs-v2" d="M967.111-64h-910.222c-34.133 0-56.889 22.756-56.889 56.889v682.667c0 34.133 22.756 56.889 56.889 56.889h227.556c0 125.156 102.4 227.556 227.556 227.556s227.556-102.4 227.556-227.556h227.556c34.133 0 56.889-22.756 56.889-56.889v-682.667c0-34.133-28.444-56.889-56.889-56.889v0zM512 846.222c-62.578 0-113.778-51.2-113.778-113.778h227.556c0 62.578-51.2 113.778-113.778 113.778v0zM910.222 618.667h-796.444v-568.889h796.444v568.889z" />
<glyph unicode="&#xe61d;" glyph-name="services-v2" d="M967.111-64h-341.333c-34.133 0-56.889 22.756-56.889 56.889v341.333c0 34.133 22.756 56.889 56.889 56.889h341.333c34.133 0 56.889-22.756 56.889-56.889v-341.333c0-34.133-28.444-56.889-56.889-56.889v0zM910.222 277.333h-227.556v-227.556h227.556v227.556zM967.111 504.889h-341.333c-34.133 0-56.889 22.756-56.889 56.889v341.333c0 34.133 22.756 56.889 56.889 56.889h341.333c34.133 0 56.889-22.756 56.889-56.889v-341.333c0-34.133-28.444-56.889-56.889-56.889v0zM910.222 846.222h-227.556v-227.556h227.556v227.556zM398.222-64h-341.333c-34.133 0-56.889 22.756-56.889 56.889v341.333c0 34.133 22.756 56.889 56.889 56.889h341.333c34.133 0 56.889-22.756 56.889-56.889v-341.333c0-34.133-22.756-56.889-56.889-56.889v0zM341.333 277.333h-227.556v-227.556h227.556v227.556zM398.222 504.889h-341.333c-28.444 0-56.889 22.756-56.889 56.889v341.333c0 34.133 22.756 56.889 56.889 56.889h341.333c34.133 0 56.889-22.756 56.889-56.889v-341.333c0-34.133-22.756-56.889-56.889-56.889v0zM341.333 846.222h-227.556v-227.556h227.556v227.556z" />
<glyph unicode="&#xe61e;" glyph-name="notifications-v2" d="M967.111 106.667h-284.444c0-96.711-73.956-170.667-170.667-170.667s-170.667 73.956-170.667 170.667h-284.444c-34.133 0-56.889 22.756-56.889 56.889s22.756 56.889 56.889 56.889c56.889 0 113.778 56.889 113.778 113.778v284.444c0 187.733 153.6 341.333 341.333 341.333s341.333-153.6 341.333-341.333c0 0 0-284.444 0-284.444 0-56.889 56.889-113.778 113.778-113.778 34.133 0 56.889-22.756 56.889-56.889s-22.756-56.889-56.889-56.889v0zM512 49.778c34.133 0 56.889 22.756 56.889 56.889h-113.778c0-34.133 28.444-56.889 56.889-56.889v0zM739.556 334.222v284.444c0 125.156-102.4 227.556-227.556 227.556s-227.556-102.4-227.556-227.556v-284.444c0-39.822-17.067-79.644-39.822-113.778h529.067c-17.067 34.133-34.133 73.956-34.133 113.778v0z" />
<glyph unicode="&#xe61f;" glyph-name="customers-v2" d="M512-64c-284.444 0-512 227.556-512 512s227.556 512 512 512c284.444 0 512-227.556 512-512s-227.556-512-512-512v0zM705.422 100.978c-39.822 51.2-102.4 119.467-136.533 119.467l5.689 11.378c-22.756-5.689-39.822-11.378-62.578-11.378s-39.822 5.689-62.578 11.378l5.689-11.378c-34.133 0-96.711-68.267-136.533-119.467 56.889-34.133 125.156-51.2 193.422-51.2s136.533 17.067 193.422 51.2v0zM512 334.222c62.578 0 113.778 51.2 113.778 113.778s-51.2 113.778-113.778 113.778c-62.578 0-113.778-51.2-113.778-113.778s51.2-113.778 113.778-113.778v0zM512 846.222c-221.867 0-398.222-176.356-398.222-398.222 0-108.089 45.511-210.489 113.778-278.756 5.689 17.067 45.511 79.644 113.778 130.844-34.133 39.822-56.889 91.022-56.889 147.911 0 125.156 102.4 227.556 227.556 227.556s227.556-102.4 227.556-227.556c0-56.889-22.756-108.089-56.889-147.911 68.267-51.2 102.4-113.778 113.778-130.844 73.956 73.956 113.778 170.667 113.778 278.756 0 221.867-176.356 398.222-398.222 398.222v0z" />
<glyph unicode="&#xe620;" glyph-name="currency-v2" d="M625.778 504.889h-227.556c-62.578 0-113.778 51.2-113.778 113.778s51.2 113.778 113.778 113.778h227.556c62.578 0 113.778-51.2 113.778-113.778h113.778c0 125.156-102.4 227.556-227.556 227.556h-56.889v56.889c0 34.133-22.756 56.889-56.889 56.889s-56.889-22.756-56.889-56.889v-56.889h-56.889c-125.156 0-227.556-102.4-227.556-227.556s102.4-227.556 227.556-227.556h227.556c62.578 0 113.778-51.2 113.778-113.778s-51.2-113.778-113.778-113.778h-227.556c-62.578 0-113.778 51.2-113.778 113.778h-113.778c0-125.156 102.4-227.556 227.556-227.556h56.889v-56.889c0-34.133 22.756-56.889 56.889-56.889s56.889 22.756 56.889 56.889v56.889h56.889c125.156 0 227.556 102.4 227.556 227.556s-102.4 227.556-227.556 227.556z" />
<glyph unicode="&#xe621;" glyph-name="arrow-up" horiz-adv-x="1707" d="M384.359 95.985l469.361 469.361 469.239-469.361 117.334 117.334-586.577 586.709-586.835-586.709z" />
<glyph unicode="&#xe622;" glyph-name="arrow-down" horiz-adv-x="1707" d="M1322.641 800.015l-469.361-469.361-469.243 469.361-117.333-117.333 586.578-586.71 586.839 586.71z" />
<glyph unicode="&#xe623;" glyph-name="download" horiz-adv-x="970" d="M808.421 474.947c0 0 0 53.895-107.789 53.895l-161.684-161.684v538.947c0 32.337-21.558 53.895-53.895 53.895s-53.895-21.558-53.895-53.895v-538.947l-161.684 161.684c-107.789 0-107.789-53.895-107.789-53.895l323.368-323.368 323.368 323.368zM916.211 43.789h-862.316c-32.337 0-53.895-21.558-53.895-53.895s21.558-53.895 53.895-53.895h862.316c32.337 0 53.895 21.558 53.895 53.895s-21.558 53.895-53.895 53.895z" />
<glyph unicode="&#xe624;" glyph-name="add-new" d="M960 512h-384v384c0 38.4-25.6 64-64 64s-64-25.6-64-64v-384h-384c-38.4 0-64-25.6-64-64s25.6-64 64-64h384v-384c0-38.4 25.6-64 64-64s64 25.6 64 64v384h384c38.4 0 64 25.6 64 64s-25.6 64-64 64z" />
<glyph unicode="&#xe625;" glyph-name="search" d="M1011.119 45.484c25.761-25.761 25.761-64.403 0-90.164s-64.403-25.761-90.164 0l-193.208 199.648c0 0 0 0 0 0-83.723-64.403-173.887-96.604-276.931-96.604-251.17 0-450.818 199.648-450.818 450.818s199.648 450.818 450.818 450.818c251.17 0 450.818-199.648 450.818-450.818 0-103.044-32.201-193.208-90.164-270.491 0 0 0 0 0 0l199.648-193.208zM450.818 831.195c-180.327 0-322.013-141.686-322.013-322.013s141.686-322.013 322.013-322.013c180.327 0 322.013 141.686 322.013 322.013s-141.686 322.013-322.013 322.013v0zM450.818 573.585c-38.642 0-64.403-25.761-64.403-64.403s-25.761-64.403-64.403-64.403-64.403 25.761-64.403 64.403c0 109.484 83.723 193.208 193.208 193.208 38.642 0 64.403-25.761 64.403-64.403s-25.761-64.403-64.403-64.403v0z" />
<glyph unicode="&#xe626;" glyph-name="question" d="M512 172.308c0-21.752-17.633-39.385-39.385-39.385s-39.385 17.633-39.385 39.385c0 21.752 17.633 39.385 39.385 39.385s39.385-17.633 39.385-39.385zM512 723.692c-110.277 0-196.923-86.646-196.923-196.923 0-23.631 15.754-39.385 39.385-39.385s39.385 15.754 39.385 39.385c0 66.954 51.2 118.154 118.154 118.154s118.154-51.2 118.154-118.154c0-78.769-39.385-118.154-78.769-118.154-66.954 0-118.154-51.2-118.154-118.154 0-23.631 15.754-39.385 39.385-39.385s39.385 15.754 39.385 39.385c0 23.631 15.754 39.385 39.385 39.385 78.769 0 157.538 78.769 157.538 196.923 0 110.277-86.646 196.923-196.923 196.923zM512 960c-283.569 0-512-228.431-512-512s228.431-512 512-512c283.569 0 512 228.431 512 512s-228.431 512-512 512zM512 14.769c-240.246 0-433.231 192.985-433.231 433.231s192.985 433.231 433.231 433.231 433.231-192.985 433.231-433.231c0-240.246-192.985-433.231-433.231-433.231z" />
</font>
</defs>
</svg>
